<?xml version="1.0" encoding="UTF-8"?>
<svg id="Layer_2" data-name="Layer 2" xmlns="http://www.w3.org/2000/svg" viewBox="0 0 155.69 252.51">
  <defs>
    <style>
      .cls-1 {
        fill: #fff;
        stroke-width: 0px;
      }
    </style>
  </defs>
  <path class="cls-1" d="m29.44,158.53l91.98,91.98c2.67,2.67,7.01,2.67,9.68,0l22.59-22.59c2.67-2.67,2.67-7.01,0-9.68l-87.14-87.14c-2.67-2.67-2.67-7.01,0-9.68l87.14-87.14c2.67-2.67,2.67-7.01,0-9.68l-22.59-22.59c-2.67-2.67-7.01-2.67-9.68,0L29.44,93.98,2.01,121.41c-2.67,2.67-2.67,7.01,0,9.68l27.43,27.43ZM131.1,24.6h0c2.67,2.67,2.67,7.01,0,9.68L43.96,121.41c-2.67,2.67-2.67,7.01,0,9.68l87.14,87.14c2.67,2.67,2.67,7.01,0,9.68h0c-2.67,2.67-7.01,2.67-9.68,0L29.44,135.94l-4.84-4.84c-2.67-2.67-2.67-7.01,0-9.68l4.84-4.84L121.41,24.6c2.67-2.67,7.01-2.67,9.68,0Z"/>
</svg>