<?xml version="1.0" encoding="UTF-8"?>
<svg id="Layer_2" data-name="Layer 2" xmlns="http://www.w3.org/2000/svg" viewBox="0 0 155.69 252.51">
  <defs>
    <style>
      .cls-1 {
        stroke-width: 0px;
        fill: white;
      }
    </style>
  </defs>
  <path class="cls-1" d="m126.26,93.98L34.28,2.01c-2.67-2.67-7.01-2.67-9.68,0L2.01,24.6c-2.67,2.67-2.67,7.01,0,9.68l87.14,87.14c2.67,2.67,2.67,7.01,0,9.68L2.01,218.23c-2.67,2.67-2.67,7.01,0,9.68l22.59,22.59c2.67,2.67,7.01,2.67,9.68,0l91.98-91.98,27.43-27.43c2.67-2.67,2.67-7.01,0-9.68l-27.43-27.43ZM24.6,227.91h0c-2.67-2.67-2.67-7.01,0-9.68l87.14-87.14c2.67-2.67,2.67-7.01,0-9.68L24.6,34.28c-2.67-2.67-2.67-7.01,0-9.68h0c2.67-2.67,7.01-2.67,9.68,0l91.98,91.98,4.84,4.84c2.67,2.67,2.67,7.01,0,9.68l-4.84,4.84-91.98,91.98c-2.67,2.67-7.01,2.67-9.68,0Z"/>
</svg>